<svg xmlns="http://www.w3.org/2000/svg" width="104.047" height="71.974" viewBox="0 0 104.047 71.974">
  <g id="Groupe_41" data-name="Groupe 41" transform="translate(-864.661 256)">
    <g id="hospital-sign" transform="translate(871.974 -244.153)">
      <path id="Tracé_21" data-name="Tracé 21" d="M237.112-388.747c-.887.489-.905.706-.923,7.023v5.937h-5.883c-6.408,0-6.679.036-7.114,1a101.132,101.132,0,0,0-.036,12.834,1.806,1.806,0,0,0,.67.778c.434.29,1.068.326,6.426.38l5.937.054v11.965l.525.525.525.525h12.779l.507-.489.507-.489v-12.037l6.082-.054,6.082-.054.525-.6.525-.579v-12.653l-.434-.507-.434-.507-6.136-.09-6.118-.091-.09-6.154c-.054-3.385-.127-6.172-.145-6.209-.018-.018-.308-.2-.615-.4-.561-.344-.923-.362-6.661-.362C238.922-388.982,237.456-388.928,237.112-388.747Z" transform="translate(-185.832 389)" fill="#fff"/>
      <path id="Tracé_28" data-name="Tracé 28" d="M113-269.5v1.5h25v-3H113Z" transform="translate(-112 316.28)" fill="#fff"/>
      <path id="Tracé_34" data-name="Tracé 34" d="M113-269.5v1.5h25v-3H113Z" transform="translate(-112 307.486)" fill="#fff"/>
      <path id="Tracé_36" data-name="Tracé 36" d="M113-269.5v1.5h25v-3H113Z" transform="translate(-112.5 289.934)" fill="#fff"/>
      <path id="Tracé_39" data-name="Tracé 39" d="M113-269.5v1.5h25v-3H113Z" transform="translate(-113 281.164)" fill="#fff"/>
      <path id="Tracé_40" data-name="Tracé 40" d="M113-269.5v1.5h25v-3H113Z" transform="translate(-113 271.562)" fill="#fff"/>
      <path id="Tracé_37" data-name="Tracé 37" d="M113-269.5v1.5h25v-3H113Z" transform="translate(-112.5 299.601)" fill="#fff"/>
      <path id="Tracé_23" data-name="Tracé 23" d="M215.231-129.475a2.785,2.785,0,0,0-.231.808,2.229,2.229,0,0,0,.539,1.474c.2.162,4.09.222,13.071.182l12.8-.061.209-.485a2.343,2.343,0,0,0-.044-2l-.253-.444H215.451Z" transform="translate(-170.633 175.28)" fill="#fff"/>
      <path id="Tracé_24" data-name="Tracé 24" d="M113-123.527v3.473h24.5V-127H113Z" transform="translate(-111.5 165.333)" fill="#5c7aea"/>
      <path id="Tracé_35" data-name="Tracé 35" d="M113-123.032v3.968h24.5V-127H113Z" transform="translate(-112 148.284)" fill="#5c7aea"/>
      <path id="Tracé_38" data-name="Tracé 38" d="M113-123.032v3.968h24.5V-127H113Z" transform="translate(-112.5 130.562)" fill="#5c7aea"/>
    </g>
    <g id="Tracé_33" data-name="Tracé 33" transform="translate(891.169 -256)" fill="none">
      <path d="M12.781,0H64.758c7.059,0,12.781,5.142,12.781,11.485v49c0,6.343-5.722,11.485-12.781,11.485H12.781C5.722,71.974,0,66.832,0,60.489v-49C0,5.142,5.722,0,12.781,0Z" stroke="none"/>
      <path d="M 12.7811279296875 8 C 10.23416900634766 8 8 9.62860107421875 8 11.4852180480957 L 8 60.4887809753418 C 8 62.34539794921875 10.23416900634766 63.9739990234375 12.7811279296875 63.9739990234375 L 64.75775146484375 63.9739990234375 C 67.30471038818359 63.9739990234375 69.53887939453125 62.34539794921875 69.53887939453125 60.4887809753418 L 69.53887939453125 11.4852180480957 C 69.53887939453125 9.62860107421875 67.30471038818359 8 64.75775146484375 8 L 12.7811279296875 8 M 12.7811279296875 0 L 64.75775146484375 0 C 71.81656646728516 0 77.53887939453125 5.142105102539063 77.53887939453125 11.4852180480957 L 77.53887939453125 60.4887809753418 C 77.53887939453125 66.83189392089844 71.81656646728516 71.9739990234375 64.75775146484375 71.9739990234375 L 12.7811279296875 71.9739990234375 C 5.722312927246094 71.9739990234375 0 66.83189392089844 0 60.4887809753418 L 0 11.4852180480957 C 0 5.142105102539063 5.722312927246094 0 12.7811279296875 0 Z" stroke="none" fill="#fff"/>
    </g>
    <path id="Tracé_32" data-name="Tracé 32" d="M0,0H13.339V49.945H0Z" transform="translate(868.661 -245.818)" fill="#5c7aea"/>
    <path id="Tracé_31" data-name="Tracé 31" d="M702.091-558H716.4v49.945H702.091" transform="translate(166.57 312.182)" fill="none" stroke="#fff" stroke-linecap="round" stroke-linejoin="round" stroke-width="8"/>
  </g>
</svg>
